<svg xmlns="http://www.w3.org/2000/svg" width="24" height="24" viewBox="0 0 24 24">
  <path fill="#25D366" d="M12 2C6.48 2 2 6.48 2 12c0 1.78.47 3.46 1.29 4.91L2 22l5.21-1.26C8.63 21.54 10.26 22 12 22c5.52 0 10-4.48 10-10S17.52 2 12 2Z"/>
  <path fill="#FFF" d="M7.4 6.9c-.35 0-.6.15-.82.42-.53.64-.7 1.36-.53 2.21.48 2.49 3.31 5.9 6.59 7.19 1.18.46 2.44.51 3.27-.07.46-.31.89-1.07.89-1.61 0-.23-.15-.34-.4-.46l-1.9-.92c-.3-.15-.47-.09-.63.12l-.79.97c-.18.22-.35.25-.61.12-1.6-.77-2.74-1.89-3.52-3.41-.13-.25-.07-.43.09-.61l.61-.71c.23-.26.26-.49.14-.78l-.9-2.09c-.11-.28-.27-.37-.54-.37Z"/>
</svg>
